<svg width="100" height="100" viewBox="0 0 100 100" xmlns="http://www.w3.org/2000/svg">
  <defs>
    <linearGradient id="g" x1="0%" y1="0%" x2="100%" y2="100%">
      <stop offset="0%" stop-color="#6366f1"/>
      <stop offset="55%" stop-color="#8b5cf6"/>
      <stop offset="100%" stop-color="#ec4899"/>
    </linearGradient>
    <linearGradient id="s" x1="0%" y1="0%" x2="0%" y2="100%">
      <stop offset="0%" stop-color="#ffffff" stop-opacity="0.25"/>
      <stop offset="60%" stop-color="#ffffff" stop-opacity="0"/>
    </linearGradient>
  </defs>
  <rect x="4" y="4" width="92" height="92" rx="24" fill="url(#g)"/>
  <rect x="4" y="4" width="92" height="92" rx="24" fill="url(#s)"/>
  <path d="M26 30 h48 a3 3 0 0 1 3 3 v7 a3 3 0 0 1 -3 3 h-16 v30 a3 3 0 0 1 -3 3 h-9 a3 3 0 0 1 -3 -3 v-30 h-17 a3 3 0 0 1 -3 -3 v-7 a3 3 0 0 1 3 -3 z" fill="#ffffff"/>
  <path d="M68 64 L82 64 L75 78 Z" fill="#ffffff" fill-opacity="0.85"/>
</svg>
