<svg width="100" height="100" viewBox="0 0 100 100" xmlns="http://www.w3.org/2000/svg">
  <defs>
    <linearGradient id="bg" x1="0%" y1="0%" x2="100%" y2="100%">
      <stop offset="0%" stop-color="#0f0f1e"/>
      <stop offset="100%" stop-color="#020014"/>
    </linearGradient>
    <linearGradient id="f1" x1="0%" y1="0%" x2="100%" y2="100%">
      <stop offset="0%" stop-color="#60a5fa"/>
      <stop offset="100%" stop-color="#3b82f6"/>
    </linearGradient>
    <linearGradient id="f2" x1="0%" y1="0%" x2="100%" y2="100%">
      <stop offset="0%" stop-color="#a78bfa"/>
      <stop offset="100%" stop-color="#7c3aed"/>
    </linearGradient>
    <linearGradient id="f3" x1="0%" y1="0%" x2="100%" y2="100%">
      <stop offset="0%" stop-color="#f472b6"/>
      <stop offset="100%" stop-color="#db2777"/>
    </linearGradient>
  </defs>
  <rect x="2" y="2" width="96" height="96" rx="22" fill="url(#bg)"/>
  <g transform="translate(50 52)">
    <path d="M0 -28 L-26 16 L0 4 Z" fill="url(#f1)"/>
    <path d="M0 -28 L26 16 L0 4 Z" fill="url(#f2)"/>
    <path d="M-26 16 L26 16 L0 4 Z" fill="url(#f3)"/>
    <path d="M0 -28 L-26 16 L26 16 Z M0 -28 L0 4 M-26 16 L0 4 M26 16 L0 4" fill="none" stroke="#ffffff" stroke-opacity="0.25" stroke-width="0.8" stroke-linejoin="round"/>
  </g>
  <rect x="2" y="2" width="96" height="96" rx="22" fill="none" stroke="#a78bfa" stroke-width="1" stroke-opacity="0.35"/>
</svg>
